# Blender 4.2.1 LTS
# www.blender.org
mtllib eyes_31_1px.mtl
o eyebrow_l
v -0.062500 0.310937 -0.190625
v -0.062500 0.310937 -0.253125
v -0.062500 0.248437 -0.190625
v -0.062500 0.248437 -0.253125
v -0.187500 0.310937 -0.253125
v -0.187500 0.310937 -0.190625
v -0.187500 0.248437 -0.253125
v -0.187500 0.248437 -0.190625
v -0.125000 0.248437 -0.253125
v -0.125000 0.310937 -0.253125
v -0.125000 0.248437 -0.190625
v -0.125000 0.310937 -0.190625
v -0.093750 0.248437 -0.253125
v -0.093750 0.310937 -0.253125
v -0.093750 0.248437 -0.190625
v -0.093750 0.310937 -0.190625
v -0.109375 0.248437 -0.253125
v -0.109375 0.310937 -0.253125
v -0.109375 0.248437 -0.190625
v -0.109375 0.310937 -0.190625
v -0.078125 0.248437 -0.253125
v -0.078125 0.310937 -0.253125
v -0.078125 0.248437 -0.190625
v -0.078125 0.310937 -0.190625
v -0.156250 0.248437 -0.253125
v -0.156250 0.310937 -0.253125
v -0.156250 0.248437 -0.190625
v -0.156250 0.310937 -0.190625
v -0.140625 0.248437 -0.253125
v -0.140625 0.310937 -0.253125
v -0.140625 0.248437 -0.190625
v -0.140625 0.310937 -0.190625
v -0.171875 0.248437 -0.253125
v -0.171875 0.310937 -0.253125
v -0.171875 0.248437 -0.190625
v -0.171875 0.310937 -0.190625
vn -0.0000 -0.0000 -1.0000
vn 1.0000 -0.0000 -0.0000
vn -0.0000 -0.0000 1.0000
vn -1.0000 -0.0000 -0.0000
vn -0.0000 1.0000 -0.0000
vn -0.0000 -1.0000 -0.0000
vt 0.546875 0.500000
vt 0.562500 0.500000
vt 0.562500 0.562500
vt 0.546875 0.562500
vt 0.375000 0.500000
vt 0.437500 0.500000
vt 0.437500 0.562500
vt 0.375000 0.562500
vt 0.734375 0.500000
vt 0.750000 0.500000
vt 0.750000 0.562500
vt 0.734375 0.562500
vt 0.625000 0.500000
vt 0.625000 0.562500
vt 0.453125 0.625000
vt 0.437500 0.625000
vt 0.453125 0.562500
vt 0.578125 0.562500
vt 0.562500 0.625000
vt 0.578125 0.625000
vt 0.640625 0.562500
vt 0.625000 0.625000
vt 0.640625 0.625000
vt 0.515625 0.625000
vt 0.500000 0.625000
vt 0.500000 0.562500
vt 0.515625 0.562500
vt 0.671875 0.500000
vt 0.687500 0.500000
vt 0.687500 0.562500
vt 0.671875 0.562500
vt 0.484375 0.500000
vt 0.500000 0.500000
vt 0.484375 0.562500
vt 0.453125 0.500000
vt 0.468750 0.500000
vt 0.468750 0.562500
vt 0.609375 0.562500
vt 0.593750 0.562500
vt 0.593750 0.625000
vt 0.609375 0.625000
vt 0.484375 0.625000
vt 0.468750 0.625000
vt 0.703125 0.500000
vt 0.718750 0.500000
vt 0.718750 0.562500
vt 0.703125 0.562500
vt 0.640625 0.500000
vt 0.656250 0.500000
vt 0.656250 0.562500
vt 0.546875 0.625000
vt 0.531250 0.625000
vt 0.531250 0.562500
vt 0.656250 0.625000
vt 0.671875 0.625000
vt 0.515625 0.500000
vt 0.531250 0.500000
vt 0.687500 0.625000
s 0
usemtl m_100a4ea9-11fd-f558-54f7-1e58dc7da29a
f 33/1/1 7/2/1 5/3/1 34/4/1
f 3/5/2 4/6/2 2/7/2 1/8/2
f 23/9/3 3/10/3 1/11/3 24/12/3
f 7/2/4 8/13/4 6/14/4 5/3/4
f 24/15/5 1/16/5 2/7/5 22/17/5
f 21/18/6 4/3/6 3/19/6 23/20/6
f 29/21/6 9/14/6 11/22/6 31/23/6
f 32/24/5 12/25/5 10/26/5 30/27/5
f 31/28/3 11/29/3 12/30/3 32/31/3
f 17/32/1 9/33/1 10/26/1 18/34/1
f 21/35/1 13/36/1 14/37/1 22/17/1
f 17/38/6 13/39/6 15/40/6 19/41/6
f 20/42/5 16/43/5 14/37/5 18/34/5
f 19/44/3 15/45/3 16/46/3 20/47/3
f 11/29/3 19/44/3 20/47/3 12/30/3
f 12/25/5 20/42/5 18/34/5 10/26/5
f 9/14/6 17/38/6 19/41/6 11/22/6
f 13/36/1 17/32/1 18/34/1 14/37/1
f 4/6/1 21/35/1 22/17/1 2/7/1
f 13/39/6 21/18/6 23/20/6 15/40/6
f 16/43/5 24/15/5 22/17/5 14/37/5
f 15/45/3 23/9/3 24/12/3 16/46/3
f 35/48/3 27/49/3 28/50/3 36/21/3
f 36/51/5 28/52/5 26/53/5 34/4/5
f 33/31/6 25/50/6 27/54/6 35/55/6
f 29/56/1 25/57/1 26/53/1 30/27/1
f 9/33/1 29/56/1 30/27/1 10/26/1
f 27/49/3 31/28/3 32/31/3 28/50/3
f 28/52/5 32/24/5 30/27/5 26/53/5
f 25/50/6 29/21/6 31/23/6 27/54/6
f 7/30/6 33/31/6 35/55/6 8/58/6
f 6/19/5 36/51/5 34/4/5 5/3/5
f 8/13/3 35/48/3 36/21/3 6/14/3
f 25/57/1 33/1/1 34/4/1 26/53/1
o eyebrow_r
v 0.187500 0.310937 -0.190625
v 0.187500 0.310937 -0.253125
v 0.187500 0.248437 -0.190625
v 0.187500 0.248437 -0.253125
v 0.062500 0.310937 -0.253125
v 0.062500 0.310937 -0.190625
v 0.062500 0.248437 -0.253125
v 0.062500 0.248437 -0.190625
v 0.125000 0.248437 -0.253125
v 0.125000 0.310937 -0.253125
v 0.125000 0.248437 -0.190625
v 0.125000 0.310937 -0.190625
v 0.156250 0.248437 -0.253125
v 0.156250 0.310937 -0.253125
v 0.156250 0.248437 -0.190625
v 0.156250 0.310937 -0.190625
v 0.140625 0.248437 -0.253125
v 0.140625 0.310937 -0.253125
v 0.140625 0.248437 -0.190625
v 0.140625 0.310937 -0.190625
v 0.171875 0.248437 -0.253125
v 0.171875 0.310937 -0.253125
v 0.171875 0.248437 -0.190625
v 0.171875 0.310937 -0.190625
v 0.093750 0.248437 -0.253125
v 0.093750 0.310937 -0.253125
v 0.093750 0.248437 -0.190625
v 0.093750 0.310937 -0.190625
v 0.109375 0.248437 -0.253125
v 0.109375 0.310937 -0.253125
v 0.109375 0.248437 -0.190625
v 0.109375 0.310937 -0.190625
v 0.078125 0.248437 -0.253125
v 0.078125 0.310937 -0.253125
v 0.078125 0.248437 -0.190625
v 0.078125 0.310937 -0.190625
vn -0.0000 -0.0000 -1.0000
vn 1.0000 -0.0000 -0.0000
vn -0.0000 -0.0000 1.0000
vn -1.0000 -0.0000 -0.0000
vn -0.0000 1.0000 -0.0000
vn -0.0000 -1.0000 -0.0000
vt 0.171875 0.500000
vt 0.187500 0.500000
vt 0.187500 0.562500
vt 0.171875 0.562500
vt 0.000000 0.500000
vt 0.062500 0.500000
vt 0.062500 0.562500
vt 0.000000 0.562500
vt 0.359375 0.500000
vt 0.375000 0.500000
vt 0.375000 0.562500
vt 0.359375 0.562500
vt 0.250000 0.500000
vt 0.250000 0.562500
vt 0.078125 0.625000
vt 0.062500 0.625000
vt 0.078125 0.562500
vt 0.203125 0.562500
vt 0.187500 0.625000
vt 0.203125 0.625000
vt 0.265625 0.562500
vt 0.250000 0.625000
vt 0.265625 0.625000
vt 0.140625 0.625000
vt 0.125000 0.625000
vt 0.125000 0.562500
vt 0.140625 0.562500
vt 0.296875 0.500000
vt 0.312500 0.500000
vt 0.312500 0.562500
vt 0.296875 0.562500
vt 0.109375 0.500000
vt 0.125000 0.500000
vt 0.109375 0.562500
vt 0.078125 0.500000
vt 0.093750 0.500000
vt 0.093750 0.562500
vt 0.234375 0.562500
vt 0.218750 0.562500
vt 0.218750 0.625000
vt 0.234375 0.625000
vt 0.109375 0.625000
vt 0.093750 0.625000
vt 0.328125 0.500000
vt 0.343750 0.500000
vt 0.343750 0.562500
vt 0.328125 0.562500
vt 0.265625 0.500000
vt 0.281250 0.500000
vt 0.281250 0.562500
vt 0.171875 0.625000
vt 0.156250 0.625000
vt 0.156250 0.562500
vt 0.281250 0.625000
vt 0.296875 0.625000
vt 0.140625 0.500000
vt 0.156250 0.500000
vt 0.312500 0.625000
s 0
usemtl m_100a4ea9-11fd-f558-54f7-1e58dc7da29a
f 69/59/7 43/60/7 41/61/7 70/62/7
f 39/63/8 40/64/8 38/65/8 37/66/8
f 59/67/9 39/68/9 37/69/9 60/70/9
f 43/60/10 44/71/10 42/72/10 41/61/10
f 60/73/11 37/74/11 38/65/11 58/75/11
f 57/76/12 40/61/12 39/77/12 59/78/12
f 65/79/12 45/72/12 47/80/12 67/81/12
f 68/82/11 48/83/11 46/84/11 66/85/11
f 67/86/9 47/87/9 48/88/9 68/89/9
f 53/90/7 45/91/7 46/84/7 54/92/7
f 57/93/7 49/94/7 50/95/7 58/75/7
f 53/96/12 49/97/12 51/98/12 55/99/12
f 56/100/11 52/101/11 50/95/11 54/92/11
f 55/102/9 51/103/9 52/104/9 56/105/9
f 47/87/9 55/102/9 56/105/9 48/88/9
f 48/83/11 56/100/11 54/92/11 46/84/11
f 45/72/12 53/96/12 55/99/12 47/80/12
f 49/94/7 53/90/7 54/92/7 50/95/7
f 40/64/7 57/93/7 58/75/7 38/65/7
f 49/97/12 57/76/12 59/78/12 51/98/12
f 52/101/11 60/73/11 58/75/11 50/95/11
f 51/103/9 59/67/9 60/70/9 52/104/9
f 71/106/9 63/107/9 64/108/9 72/79/9
f 72/109/11 64/110/11 62/111/11 70/62/11
f 69/89/12 61/108/12 63/112/12 71/113/12
f 65/114/7 61/115/7 62/111/7 66/85/7
f 45/91/7 65/114/7 66/85/7 46/84/7
f 63/107/9 67/86/9 68/89/9 64/108/9
f 64/110/11 68/82/11 66/85/11 62/111/11
f 61/108/12 65/79/12 67/81/12 63/112/12
f 43/88/12 69/89/12 71/113/12 44/116/12
f 42/77/11 72/109/11 70/62/11 41/61/11
f 44/71/9 71/106/9 72/79/9 42/72/9
f 61/115/7 69/59/7 70/62/7 62/111/7
o eyelid_lb
v -0.062500 0.187500 -0.184375
v -0.062500 0.187500 -0.246875
v -0.062500 0.131250 -0.184375
v -0.062500 0.131250 -0.246875
v -0.187500 0.187500 -0.246875
v -0.187500 0.187500 -0.184375
v -0.187500 0.131250 -0.246875
v -0.187500 0.131250 -0.184375
v -0.125000 0.131250 -0.246875
v -0.125000 0.187500 -0.246875
v -0.125000 0.131250 -0.184375
v -0.125000 0.187500 -0.184375
v -0.093750 0.131250 -0.246875
v -0.093750 0.187500 -0.246875
v -0.093750 0.131250 -0.184375
v -0.093750 0.187500 -0.184375
v -0.078125 0.131250 -0.246875
v -0.078125 0.187500 -0.246875
v -0.078125 0.131250 -0.184375
v -0.078125 0.187500 -0.184375
v -0.109375 0.131250 -0.246875
v -0.109375 0.187500 -0.246875
v -0.109375 0.131250 -0.184375
v -0.109375 0.187500 -0.184375
v -0.156250 0.131250 -0.246875
v -0.156250 0.187500 -0.246875
v -0.156250 0.131250 -0.184375
v -0.156250 0.187500 -0.184375
v -0.140625 0.131250 -0.246875
v -0.140625 0.187500 -0.246875
v -0.140625 0.131250 -0.184375
v -0.140625 0.187500 -0.184375
v -0.171875 0.131250 -0.246875
v -0.171875 0.187500 -0.246875
v -0.171875 0.131250 -0.184375
v -0.171875 0.187500 -0.184375
vn -0.0000 -0.0000 -1.0000
vn 1.0000 -0.0000 -0.0000
vn -0.0000 -0.0000 1.0000
vn -1.0000 -0.0000 -0.0000
vn -0.0000 1.0000 -0.0000
vn -0.0000 -1.0000 -0.0000
vt 0.546875 0.125000
vt 0.562500 0.125000
vt 0.562500 0.187500
vt 0.546875 0.187500
vt 0.375000 0.125000
vt 0.437500 0.125000
vt 0.437500 0.187500
vt 0.375000 0.187500
vt 0.734375 0.125000
vt 0.750000 0.125000
vt 0.750000 0.187500
vt 0.734375 0.187500
vt 0.625000 0.125000
vt 0.625000 0.187500
vt 0.453125 0.250000
vt 0.437500 0.250000
vt 0.453125 0.187500
vt 0.578125 0.187500
vt 0.562500 0.250000
vt 0.578125 0.250000
vt 0.640625 0.187500
vt 0.625000 0.250000
vt 0.640625 0.250000
vt 0.515625 0.250000
vt 0.500000 0.250000
vt 0.500000 0.187500
vt 0.515625 0.187500
vt 0.671875 0.125000
vt 0.687500 0.125000
vt 0.687500 0.187500
vt 0.671875 0.187500
vt 0.484375 0.125000
vt 0.500000 0.125000
vt 0.484375 0.187500
vt 0.453125 0.125000
vt 0.468750 0.125000
vt 0.468750 0.187500
vt 0.609375 0.187500
vt 0.593750 0.187500
vt 0.593750 0.250000
vt 0.609375 0.250000
vt 0.484375 0.250000
vt 0.468750 0.250000
vt 0.703125 0.125000
vt 0.718750 0.125000
vt 0.718750 0.187500
vt 0.703125 0.187500
vt 0.640625 0.125000
vt 0.656250 0.125000
vt 0.656250 0.187500
vt 0.546875 0.250000
vt 0.531250 0.250000
vt 0.531250 0.187500
vt 0.656250 0.250000
vt 0.671875 0.250000
vt 0.515625 0.125000
vt 0.531250 0.125000
vt 0.687500 0.250000
s 0
usemtl m_100a4ea9-11fd-f558-54f7-1e58dc7da29a
f 105/117/13 79/118/13 77/119/13 106/120/13
f 75/121/14 76/122/14 74/123/14 73/124/14
f 91/125/15 75/126/15 73/127/15 92/128/15
f 79/118/16 80/129/16 78/130/16 77/119/16
f 92/131/17 73/132/17 74/123/17 90/133/17
f 89/134/18 76/119/18 75/135/18 91/136/18
f 101/137/18 81/130/18 83/138/18 103/139/18
f 104/140/17 84/141/17 82/142/17 102/143/17
f 103/144/15 83/145/15 84/146/15 104/147/15
f 93/148/13 81/149/13 82/142/13 94/150/13
f 89/151/13 85/152/13 86/153/13 90/133/13
f 93/154/18 85/155/18 87/156/18 95/157/18
f 96/158/17 88/159/17 86/153/17 94/150/17
f 95/160/15 87/161/15 88/162/15 96/163/15
f 76/122/13 89/151/13 90/133/13 74/123/13
f 85/155/18 89/134/18 91/136/18 87/156/18
f 88/159/17 92/131/17 90/133/17 86/153/17
f 87/161/15 91/125/15 92/128/15 88/162/15
f 83/145/15 95/160/15 96/163/15 84/146/15
f 84/141/17 96/158/17 94/150/17 82/142/17
f 81/130/18 93/154/18 95/157/18 83/138/18
f 85/152/13 93/148/13 94/150/13 86/153/13
f 107/164/15 99/165/15 100/166/15 108/137/15
f 108/167/17 100/168/17 98/169/17 106/120/17
f 105/147/18 97/166/18 99/170/18 107/171/18
f 101/172/13 97/173/13 98/169/13 102/143/13
f 81/149/13 101/172/13 102/143/13 82/142/13
f 99/165/15 103/144/15 104/147/15 100/166/15
f 100/168/17 104/140/17 102/143/17 98/169/17
f 97/166/18 101/137/18 103/139/18 99/170/18
f 79/146/18 105/147/18 107/171/18 80/174/18
f 78/135/17 108/167/17 106/120/17 77/119/17
f 80/129/15 107/164/15 108/137/15 78/130/15
f 97/173/13 105/117/13 106/120/13 98/169/13
o eyelid_lt
v -0.062500 0.306250 -0.184375
v -0.062500 0.306250 -0.246875
v -0.062500 0.250000 -0.184375
v -0.062500 0.250000 -0.246875
v -0.187500 0.306250 -0.246875
v -0.187500 0.306250 -0.184375
v -0.187500 0.250000 -0.246875
v -0.187500 0.250000 -0.184375
v -0.125000 0.250000 -0.246875
v -0.125000 0.306250 -0.246875
v -0.125000 0.250000 -0.184375
v -0.125000 0.306250 -0.184375
v -0.093750 0.250000 -0.246875
v -0.093750 0.306250 -0.246875
v -0.093750 0.250000 -0.184375
v -0.093750 0.306250 -0.184375
v -0.078125 0.250000 -0.246875
v -0.078125 0.306250 -0.246875
v -0.078125 0.250000 -0.184375
v -0.078125 0.306250 -0.184375
v -0.109375 0.250000 -0.246875
v -0.109375 0.306250 -0.246875
v -0.109375 0.250000 -0.184375
v -0.109375 0.306250 -0.184375
v -0.156250 0.250000 -0.246875
v -0.156250 0.306250 -0.246875
v -0.156250 0.250000 -0.184375
v -0.156250 0.306250 -0.184375
v -0.140625 0.250000 -0.246875
v -0.140625 0.306250 -0.246875
v -0.140625 0.250000 -0.184375
v -0.140625 0.306250 -0.184375
v -0.171875 0.250000 -0.246875
v -0.171875 0.306250 -0.246875
v -0.171875 0.250000 -0.184375
v -0.171875 0.306250 -0.184375
vn -0.0000 -0.0000 -1.0000
vn 1.0000 -0.0000 -0.0000
vn -0.0000 -0.0000 1.0000
vn -1.0000 -0.0000 -0.0000
vn -0.0000 1.0000 -0.0000
vn -0.0000 -1.0000 -0.0000
vt 0.546875 0.250000
vt 0.562500 0.250000
vt 0.562500 0.312500
vt 0.546875 0.312500
vt 0.375000 0.250000
vt 0.437500 0.250000
vt 0.437500 0.312500
vt 0.375000 0.312500
vt 0.734375 0.250000
vt 0.750000 0.250000
vt 0.750000 0.312500
vt 0.734375 0.312500
vt 0.625000 0.250000
vt 0.625000 0.312500
vt 0.453125 0.375000
vt 0.437500 0.375000
vt 0.453125 0.312500
vt 0.578125 0.312500
vt 0.562500 0.375000
vt 0.578125 0.375000
vt 0.640625 0.312500
vt 0.625000 0.375000
vt 0.640625 0.375000
vt 0.515625 0.375000
vt 0.500000 0.375000
vt 0.500000 0.312500
vt 0.515625 0.312500
vt 0.671875 0.250000
vt 0.687500 0.250000
vt 0.687500 0.312500
vt 0.671875 0.312500
vt 0.484375 0.250000
vt 0.500000 0.250000
vt 0.484375 0.312500
vt 0.453125 0.250000
vt 0.468750 0.250000
vt 0.468750 0.312500
vt 0.609375 0.312500
vt 0.593750 0.312500
vt 0.593750 0.375000
vt 0.609375 0.375000
vt 0.484375 0.375000
vt 0.468750 0.375000
vt 0.703125 0.250000
vt 0.718750 0.250000
vt 0.718750 0.312500
vt 0.703125 0.312500
vt 0.640625 0.250000
vt 0.656250 0.250000
vt 0.656250 0.312500
vt 0.546875 0.375000
vt 0.531250 0.375000
vt 0.531250 0.312500
vt 0.656250 0.375000
vt 0.671875 0.375000
vt 0.515625 0.250000
vt 0.531250 0.250000
vt 0.687500 0.375000
s 0
usemtl m_100a4ea9-11fd-f558-54f7-1e58dc7da29a
f 141/175/19 115/176/19 113/177/19 142/178/19
f 111/179/20 112/180/20 110/181/20 109/182/20
f 127/183/21 111/184/21 109/185/21 128/186/21
f 115/176/22 116/187/22 114/188/22 113/177/22
f 128/189/23 109/190/23 110/181/23 126/191/23
f 125/192/24 112/177/24 111/193/24 127/194/24
f 137/195/24 117/188/24 119/196/24 139/197/24
f 140/198/23 120/199/23 118/200/23 138/201/23
f 139/202/21 119/203/21 120/204/21 140/205/21
f 129/206/19 117/207/19 118/200/19 130/208/19
f 125/209/19 121/210/19 122/211/19 126/191/19
f 129/212/24 121/213/24 123/214/24 131/215/24
f 132/216/23 124/217/23 122/211/23 130/208/23
f 131/218/21 123/219/21 124/220/21 132/221/21
f 112/180/19 125/209/19 126/191/19 110/181/19
f 121/213/24 125/192/24 127/194/24 123/214/24
f 124/217/23 128/189/23 126/191/23 122/211/23
f 123/219/21 127/183/21 128/186/21 124/220/21
f 119/203/21 131/218/21 132/221/21 120/204/21
f 120/199/23 132/216/23 130/208/23 118/200/23
f 117/188/24 129/212/24 131/215/24 119/196/24
f 121/210/19 129/206/19 130/208/19 122/211/19
f 143/222/21 135/223/21 136/224/21 144/195/21
f 144/225/23 136/226/23 134/227/23 142/178/23
f 141/205/24 133/224/24 135/228/24 143/229/24
f 137/230/19 133/231/19 134/227/19 138/201/19
f 117/207/19 137/230/19 138/201/19 118/200/19
f 135/223/21 139/202/21 140/205/21 136/224/21
f 136/226/23 140/198/23 138/201/23 134/227/23
f 133/224/24 137/195/24 139/197/24 135/228/24
f 115/204/24 141/205/24 143/229/24 116/232/24
f 114/193/23 144/225/23 142/178/23 113/177/23
f 116/187/21 143/222/21 144/195/21 114/188/21
f 133/231/19 141/175/19 142/178/19 134/227/19
o eyelid_rb
v 0.187500 0.187500 -0.184375
v 0.187500 0.187500 -0.246875
v 0.187500 0.131250 -0.184375
v 0.187500 0.131250 -0.246875
v 0.062500 0.187500 -0.246875
v 0.062500 0.187500 -0.184375
v 0.062500 0.131250 -0.246875
v 0.062500 0.131250 -0.184375
v 0.125000 0.131250 -0.246875
v 0.125000 0.187500 -0.246875
v 0.125000 0.131250 -0.184375
v 0.125000 0.187500 -0.184375
v 0.093750 0.131250 -0.246875
v 0.093750 0.187500 -0.246875
v 0.093750 0.131250 -0.184375
v 0.093750 0.187500 -0.184375
v 0.109375 0.131250 -0.246875
v 0.109375 0.187500 -0.246875
v 0.109375 0.131250 -0.184375
v 0.109375 0.187500 -0.184375
v 0.078125 0.131250 -0.246875
v 0.078125 0.187500 -0.246875
v 0.078125 0.131250 -0.184375
v 0.078125 0.187500 -0.184375
v 0.156250 0.131250 -0.246875
v 0.156250 0.187500 -0.246875
v 0.156250 0.131250 -0.184375
v 0.156250 0.187500 -0.184375
v 0.140625 0.131250 -0.246875
v 0.140625 0.187500 -0.246875
v 0.140625 0.131250 -0.184375
v 0.140625 0.187500 -0.184375
v 0.171875 0.131250 -0.246875
v 0.171875 0.187500 -0.246875
v 0.171875 0.131250 -0.184375
v 0.171875 0.187500 -0.184375
vn -0.0000 -0.0000 -1.0000
vn 1.0000 -0.0000 -0.0000
vn -0.0000 -0.0000 1.0000
vn -1.0000 -0.0000 -0.0000
vn -0.0000 1.0000 -0.0000
vn -0.0000 -1.0000 -0.0000
vt 0.171875 0.125000
vt 0.187500 0.125000
vt 0.187500 0.187500
vt 0.171875 0.187500
vt 0.000000 0.125000
vt 0.062500 0.125000
vt 0.062500 0.187500
vt 0.000000 0.187500
vt 0.359375 0.125000
vt 0.375000 0.125000
vt 0.375000 0.187500
vt 0.359375 0.187500
vt 0.250000 0.125000
vt 0.250000 0.187500
vt 0.078125 0.250000
vt 0.062500 0.250000
vt 0.078125 0.187500
vt 0.203125 0.187500
vt 0.187500 0.250000
vt 0.203125 0.250000
vt 0.265625 0.187500
vt 0.250000 0.250000
vt 0.265625 0.250000
vt 0.140625 0.250000
vt 0.125000 0.250000
vt 0.125000 0.187500
vt 0.140625 0.187500
vt 0.296875 0.125000
vt 0.312500 0.125000
vt 0.312500 0.187500
vt 0.296875 0.187500
vt 0.109375 0.125000
vt 0.125000 0.125000
vt 0.109375 0.187500
vt 0.265625 0.125000
vt 0.281250 0.125000
vt 0.281250 0.187500
vt 0.171875 0.250000
vt 0.156250 0.250000
vt 0.156250 0.187500
vt 0.281250 0.250000
vt 0.296875 0.250000
vt 0.140625 0.125000
vt 0.156250 0.125000
vt 0.312500 0.250000
vt 0.078125 0.125000
vt 0.093750 0.125000
vt 0.093750 0.187500
vt 0.234375 0.187500
vt 0.218750 0.187500
vt 0.218750 0.250000
vt 0.234375 0.250000
vt 0.109375 0.250000
vt 0.093750 0.250000
vt 0.328125 0.125000
vt 0.343750 0.125000
vt 0.343750 0.187500
vt 0.328125 0.187500
s 0
usemtl m_100a4ea9-11fd-f558-54f7-1e58dc7da29a
f 165/233/25 151/234/25 149/235/25 166/236/25
f 147/237/26 148/238/26 146/239/26 145/240/26
f 179/241/27 147/242/27 145/243/27 180/244/27
f 151/234/28 152/245/28 150/246/28 149/235/28
f 180/247/29 145/248/29 146/239/29 178/249/29
f 177/250/30 148/235/30 147/251/30 179/252/30
f 161/253/30 153/246/30 155/254/30 163/255/30
f 164/256/29 156/257/29 154/258/29 162/259/29
f 163/260/27 155/261/27 156/262/27 164/263/27
f 173/264/25 153/265/25 154/258/25 174/266/25
f 167/267/27 159/268/27 160/269/27 168/253/27
f 168/270/29 160/271/29 158/272/29 166/236/29
f 165/263/30 157/269/30 159/273/30 167/274/30
f 161/275/25 157/276/25 158/272/25 162/259/25
f 153/265/25 161/275/25 162/259/25 154/258/25
f 159/268/27 163/260/27 164/263/27 160/269/27
f 160/271/29 164/256/29 162/259/29 158/272/29
f 157/269/30 161/253/30 163/255/30 159/273/30
f 151/262/30 165/263/30 167/274/30 152/277/30
f 150/251/29 168/270/29 166/236/29 149/235/29
f 152/245/27 167/267/27 168/253/27 150/246/27
f 157/276/25 165/233/25 166/236/25 158/272/25
f 177/278/25 169/279/25 170/280/25 178/249/25
f 173/281/30 169/282/30 171/283/30 175/284/30
f 176/285/29 172/286/29 170/280/29 174/266/29
f 175/287/27 171/288/27 172/289/27 176/290/27
f 155/261/27 175/287/27 176/290/27 156/262/27
f 156/257/29 176/285/29 174/266/29 154/258/29
f 153/246/30 173/281/30 175/284/30 155/254/30
f 169/279/25 173/264/25 174/266/25 170/280/25
f 148/238/25 177/278/25 178/249/25 146/239/25
f 169/282/30 177/250/30 179/252/30 171/283/30
f 172/286/29 180/247/29 178/249/29 170/280/29
f 171/288/27 179/241/27 180/244/27 172/289/27
o eyelid_rt
v 0.187500 0.306250 -0.184375
v 0.187500 0.306250 -0.246875
v 0.187500 0.250000 -0.184375
v 0.187500 0.250000 -0.246875
v 0.062500 0.306250 -0.246875
v 0.062500 0.306250 -0.184375
v 0.062500 0.250000 -0.246875
v 0.062500 0.250000 -0.184375
v 0.125000 0.250000 -0.246875
v 0.125000 0.306250 -0.246875
v 0.125000 0.250000 -0.184375
v 0.125000 0.306250 -0.184375
v 0.156250 0.250000 -0.246875
v 0.156250 0.306250 -0.246875
v 0.156250 0.250000 -0.184375
v 0.156250 0.306250 -0.184375
v 0.140625 0.250000 -0.246875
v 0.140625 0.306250 -0.246875
v 0.140625 0.250000 -0.184375
v 0.140625 0.306250 -0.184375
v 0.171875 0.250000 -0.246875
v 0.171875 0.306250 -0.246875
v 0.171875 0.250000 -0.184375
v 0.171875 0.306250 -0.184375
v 0.093750 0.250000 -0.246875
v 0.093750 0.306250 -0.246875
v 0.093750 0.250000 -0.184375
v 0.093750 0.306250 -0.184375
v 0.109375 0.250000 -0.246875
v 0.109375 0.306250 -0.246875
v 0.109375 0.250000 -0.184375
v 0.109375 0.306250 -0.184375
v 0.078125 0.250000 -0.246875
v 0.078125 0.306250 -0.246875
v 0.078125 0.250000 -0.184375
v 0.078125 0.306250 -0.184375
vn -0.0000 -0.0000 -1.0000
vn 1.0000 -0.0000 -0.0000
vn -0.0000 -0.0000 1.0000
vn -1.0000 -0.0000 -0.0000
vn -0.0000 1.0000 -0.0000
vn -0.0000 -1.0000 -0.0000
vt 0.171875 0.250000
vt 0.187500 0.250000
vt 0.187500 0.312500
vt 0.171875 0.312500
vt 0.000000 0.250000
vt 0.062500 0.250000
vt 0.062500 0.312500
vt 0.000000 0.312500
vt 0.359375 0.250000
vt 0.375000 0.250000
vt 0.375000 0.312500
vt 0.359375 0.312500
vt 0.250000 0.250000
vt 0.250000 0.312500
vt 0.078125 0.375000
vt 0.062500 0.375000
vt 0.078125 0.312500
vt 0.203125 0.312500
vt 0.187500 0.375000
vt 0.203125 0.375000
vt 0.265625 0.312500
vt 0.250000 0.375000
vt 0.265625 0.375000
vt 0.140625 0.375000
vt 0.125000 0.375000
vt 0.125000 0.312500
vt 0.140625 0.312500
vt 0.296875 0.250000
vt 0.312500 0.250000
vt 0.312500 0.312500
vt 0.296875 0.312500
vt 0.109375 0.250000
vt 0.125000 0.250000
vt 0.109375 0.312500
vt 0.078125 0.250000
vt 0.093750 0.250000
vt 0.093750 0.312500
vt 0.234375 0.312500
vt 0.218750 0.312500
vt 0.218750 0.375000
vt 0.234375 0.375000
vt 0.109375 0.375000
vt 0.093750 0.375000
vt 0.328125 0.250000
vt 0.343750 0.250000
vt 0.343750 0.312500
vt 0.328125 0.312500
vt 0.265625 0.250000
vt 0.281250 0.250000
vt 0.281250 0.312500
vt 0.171875 0.375000
vt 0.156250 0.375000
vt 0.156250 0.312500
vt 0.281250 0.375000
vt 0.296875 0.375000
vt 0.140625 0.250000
vt 0.156250 0.250000
vt 0.312500 0.375000
s 0
usemtl m_100a4ea9-11fd-f558-54f7-1e58dc7da29a
f 213/291/31 187/292/31 185/293/31 214/294/31
f 183/295/32 184/296/32 182/297/32 181/298/32
f 203/299/33 183/300/33 181/301/33 204/302/33
f 187/292/34 188/303/34 186/304/34 185/293/34
f 204/305/35 181/306/35 182/297/35 202/307/35
f 201/308/36 184/293/36 183/309/36 203/310/36
f 209/311/36 189/304/36 191/312/36 211/313/36
f 212/314/35 192/315/35 190/316/35 210/317/35
f 211/318/33 191/319/33 192/320/33 212/321/33
f 197/322/31 189/323/31 190/316/31 198/324/31
f 201/325/31 193/326/31 194/327/31 202/307/31
f 197/328/36 193/329/36 195/330/36 199/331/36
f 200/332/35 196/333/35 194/327/35 198/324/35
f 199/334/33 195/335/33 196/336/33 200/337/33
f 191/319/33 199/334/33 200/337/33 192/320/33
f 192/315/35 200/332/35 198/324/35 190/316/35
f 189/304/36 197/328/36 199/331/36 191/312/36
f 193/326/31 197/322/31 198/324/31 194/327/31
f 184/296/31 201/325/31 202/307/31 182/297/31
f 193/329/36 201/308/36 203/310/36 195/330/36
f 196/333/35 204/305/35 202/307/35 194/327/35
f 195/335/33 203/299/33 204/302/33 196/336/33
f 215/338/33 207/339/33 208/340/33 216/311/33
f 216/341/35 208/342/35 206/343/35 214/294/35
f 213/321/36 205/340/36 207/344/36 215/345/36
f 209/346/31 205/347/31 206/343/31 210/317/31
f 189/323/31 209/346/31 210/317/31 190/316/31
f 207/339/33 211/318/33 212/321/33 208/340/33
f 208/342/35 212/314/35 210/317/35 206/343/35
f 205/340/36 209/311/36 211/313/36 207/344/36
f 187/320/36 213/321/36 215/345/36 188/348/36
f 186/309/35 216/341/35 214/294/35 185/293/35
f 188/303/33 215/338/33 216/311/33 186/304/33
f 205/347/31 213/291/31 214/294/31 206/343/31
