# Blender v2.79 (sub 0) OBJ File: 'base.blend'
# www.blender.org
o eyelid_rb
v 0.187500 0.131250 -0.246875
v 0.062500 0.131250 -0.246875
v 0.062500 0.187500 -0.246875
v 0.187500 0.187500 -0.246875
v 0.187500 0.131250 -0.184375
v 0.187500 0.187500 -0.184375
v 0.062500 0.131250 -0.184375
v 0.062500 0.187500 -0.184375
v 0.125000 0.131250 -0.184375
v 0.125000 0.131250 -0.246875
v 0.125000 0.187500 -0.184375
v 0.125000 0.187500 -0.246875
v 0.156250 0.187500 -0.246875
v 0.156250 0.131250 -0.184375
v 0.156250 0.131250 -0.246875
v 0.156250 0.187500 -0.184375
v 0.171875 0.187500 -0.246875
v 0.171875 0.131250 -0.184375
v 0.171875 0.131250 -0.246875
v 0.171875 0.187500 -0.184375
v 0.140625 0.131250 -0.184375
v 0.140625 0.131250 -0.246875
v 0.140625 0.187500 -0.184375
v 0.140625 0.187500 -0.246875
v 0.093750 0.131250 -0.184375
v 0.093750 0.131250 -0.246875
v 0.093750 0.187500 -0.184375
v 0.093750 0.187500 -0.246875
v 0.109375 0.187500 -0.246875
v 0.109375 0.131250 -0.184375
v 0.109375 0.131250 -0.246875
v 0.109375 0.187500 -0.184375
v 0.078125 0.131250 -0.184375
v 0.078125 0.131250 -0.246875
v 0.078125 0.187500 -0.184375
v 0.078125 0.187500 -0.246875
vt 0.171875 0.125000
vt 0.187500 0.125000
vt 0.187500 0.187500
vt 0.171875 0.187500
vt 0.000000 0.125000
vt 0.062500 0.125000
vt 0.062500 0.187500
vt 0.000000 0.187500
vt 0.359375 0.125000
vt 0.375000 0.125000
vt 0.375000 0.187500
vt 0.359375 0.187500
vt 0.250000 0.125000
vt 0.250000 0.187500
vt 0.078125 0.250000
vt 0.062500 0.250000
vt 0.078125 0.187500
vt 0.203125 0.187500
vt 0.187500 0.187500
vt 0.187500 0.250000
vt 0.203125 0.250000
vt 0.265625 0.187500
vt 0.250000 0.187500
vt 0.250000 0.250000
vt 0.265625 0.250000
vt 0.140625 0.250000
vt 0.125000 0.250000
vt 0.125000 0.187500
vt 0.140625 0.187500
vt 0.296875 0.125000
vt 0.312500 0.125000
vt 0.312500 0.187500
vt 0.296875 0.187500
vt 0.109375 0.125000
vt 0.125000 0.125000
vt 0.109375 0.187500
vt 0.078125 0.125000
vt 0.093750 0.125000
vt 0.093750 0.187500
vt 0.234375 0.187500
vt 0.218750 0.187500
vt 0.218750 0.250000
vt 0.234375 0.250000
vt 0.109375 0.250000
vt 0.093750 0.250000
vt 0.328125 0.125000
vt 0.343750 0.125000
vt 0.343750 0.187500
vt 0.328125 0.187500
vt 0.265625 0.125000
vt 0.281250 0.125000
vt 0.281250 0.187500
vt 0.265625 0.187500
vt 0.171875 0.250000
vt 0.156250 0.250000
vt 0.156250 0.187500
vt 0.296875 0.187500
vt 0.281250 0.187500
vt 0.281250 0.250000
vt 0.296875 0.250000
vt 0.140625 0.125000
vt 0.156250 0.125000
vt 0.312500 0.187500
vt 0.312500 0.250000
vt 0.187500 0.250000
vn 0.0000 0.0000 -1.0000
vn 1.0000 0.0000 0.0000
vn 0.0000 -0.0000 1.0000
vn -1.0000 0.0000 0.0000
vn 0.0000 1.0000 0.0000
vn 0.0000 -1.0000 -0.0000
s 1
f 34/1/1 2/2/1 3/3/1 36/4/1
f 5/5/2 1/6/2 4/7/2 6/8/2
f 18/9/3 5/10/3 6/11/3 20/12/3
f 2/2/4 7/13/4 8/14/4 3/3/4
f 20/15/5 6/16/5 4/7/5 17/17/5
f 19/18/6 1/19/6 5/20/6 18/21/6
f 31/22/6 10/23/6 9/24/6 30/25/6
f 32/26/5 11/27/5 12/28/5 29/29/5
f 30/30/3 9/31/3 11/32/3 32/33/3
f 22/34/1 10/35/1 12/28/1 24/36/1
f 19/37/1 15/38/1 13/39/1 17/17/1
f 22/40/6 15/41/6 14/42/6 21/43/6
f 23/44/5 16/45/5 13/39/5 24/36/5
f 21/46/3 14/47/3 16/48/3 23/49/3
f 1/6/1 19/37/1 17/17/1 4/7/1
f 15/41/6 19/18/6 18/21/6 14/42/6
f 16/45/5 20/15/5 17/17/5 13/39/5
f 14/47/3 18/9/3 20/12/3 16/48/3
f 9/31/3 21/46/3 23/49/3 11/32/3
f 11/27/5 23/44/5 24/36/5 12/28/5
f 10/23/6 22/40/6 21/43/6 9/24/6
f 15/38/1 22/34/1 24/36/1 13/39/1
f 33/50/3 25/51/3 27/52/3 35/53/3
f 35/54/5 27/55/5 28/56/5 36/4/5
f 34/57/6 26/58/6 25/59/6 33/60/6
f 31/61/1 26/62/1 28/56/1 29/29/1
f 10/35/1 31/61/1 29/29/1 12/28/1
f 25/51/3 30/30/3 32/33/3 27/52/3
f 27/55/5 32/26/5 29/29/5 28/56/5
f 26/58/6 31/22/6 30/25/6 25/59/6
f 2/63/6 34/57/6 33/60/6 7/64/6
f 8/65/5 35/54/5 36/4/5 3/3/5
f 7/13/3 33/50/3 35/53/3 8/14/3
f 26/62/1 34/1/1 36/4/1 28/56/1
o eyebrow_r
v 0.187500 0.310938 -0.253125
v 0.062500 0.310938 -0.253125
v 0.062500 0.373438 -0.253125
v 0.187500 0.373438 -0.253125
v 0.187500 0.310938 -0.190625
v 0.187500 0.373438 -0.190625
v 0.062500 0.310938 -0.190625
v 0.062500 0.373438 -0.190625
v 0.125000 0.310938 -0.190625
v 0.125000 0.310938 -0.253125
v 0.125000 0.373438 -0.190625
v 0.125000 0.373438 -0.253125
v 0.156250 0.373438 -0.253125
v 0.156250 0.310938 -0.190625
v 0.156250 0.310938 -0.253125
v 0.156250 0.373438 -0.190625
v 0.093750 0.310938 -0.190625
v 0.093750 0.310938 -0.253125
v 0.093750 0.373438 -0.190625
v 0.093750 0.373438 -0.253125
v 0.171875 0.373438 -0.253125
v 0.171875 0.310938 -0.190625
v 0.171875 0.310938 -0.253125
v 0.171875 0.373438 -0.190625
v 0.140625 0.310938 -0.190625
v 0.140625 0.310938 -0.253125
v 0.140625 0.373438 -0.190625
v 0.140625 0.373438 -0.253125
v 0.109375 0.373438 -0.253125
v 0.109375 0.310938 -0.190625
v 0.109375 0.310938 -0.253125
v 0.109375 0.373438 -0.190625
v 0.078125 0.310938 -0.190625
v 0.078125 0.310938 -0.253125
v 0.078125 0.373438 -0.190625
v 0.078125 0.373438 -0.253125
vt 0.171875 0.500000
vt 0.187500 0.500000
vt 0.187500 0.562500
vt 0.171875 0.562500
vt 0.000000 0.500000
vt 0.062500 0.500000
vt 0.062500 0.562500
vt 0.000000 0.562500
vt 0.359375 0.500000
vt 0.375000 0.500000
vt 0.375000 0.562500
vt 0.359375 0.562500
vt 0.250000 0.500000
vt 0.250000 0.562500
vt 0.078125 0.625000
vt 0.062500 0.625000
vt 0.078125 0.562500
vt 0.203125 0.562500
vt 0.187500 0.562500
vt 0.187500 0.625000
vt 0.203125 0.625000
vt 0.265625 0.562500
vt 0.250000 0.562500
vt 0.250000 0.625000
vt 0.265625 0.625000
vt 0.140625 0.625000
vt 0.125000 0.625000
vt 0.125000 0.562500
vt 0.140625 0.562500
vt 0.296875 0.500000
vt 0.312500 0.500000
vt 0.312500 0.562500
vt 0.296875 0.562500
vt 0.109375 0.500000
vt 0.125000 0.500000
vt 0.109375 0.562500
vt 0.078125 0.500000
vt 0.093750 0.500000
vt 0.093750 0.562500
vt 0.234375 0.562500
vt 0.218750 0.562500
vt 0.218750 0.625000
vt 0.234375 0.625000
vt 0.109375 0.625000
vt 0.093750 0.625000
vt 0.328125 0.500000
vt 0.343750 0.500000
vt 0.343750 0.562500
vt 0.328125 0.562500
vt 0.265625 0.500000
vt 0.281250 0.500000
vt 0.281250 0.562500
vt 0.265625 0.562500
vt 0.171875 0.625000
vt 0.156250 0.625000
vt 0.156250 0.562500
vt 0.296875 0.562500
vt 0.281250 0.562500
vt 0.281250 0.625000
vt 0.296875 0.625000
vt 0.140625 0.500000
vt 0.156250 0.500000
vt 0.312500 0.562500
vt 0.312500 0.625000
vt 0.187500 0.625000
vn 0.0000 0.0000 -1.0000
vn 1.0000 0.0000 0.0000
vn 0.0000 -0.0000 1.0000
vn -1.0000 0.0000 0.0000
vn 0.0000 1.0000 0.0000
vn 0.0000 -1.0000 0.0000
s 1
f 70/66/7 38/67/7 39/68/7 72/69/7
f 41/70/8 37/71/8 40/72/8 42/73/8
f 58/74/9 41/75/9 42/76/9 60/77/9
f 38/67/10 43/78/10 44/79/10 39/68/10
f 60/80/11 42/81/11 40/72/11 57/82/11
f 59/83/12 37/84/12 41/85/12 58/86/12
f 67/87/12 46/88/12 45/89/12 66/90/12
f 68/91/11 47/92/11 48/93/11 65/94/11
f 66/95/9 45/96/9 47/97/9 68/98/9
f 62/99/7 46/100/7 48/93/7 64/101/7
f 59/102/7 51/103/7 49/104/7 57/82/7
f 62/105/12 51/106/12 50/107/12 61/108/12
f 63/109/11 52/110/11 49/104/11 64/101/11
f 61/111/9 50/112/9 52/113/9 63/114/9
f 69/115/9 53/116/9 55/117/9 71/118/9
f 71/119/11 55/120/11 56/121/11 72/69/11
f 70/122/12 54/123/12 53/124/12 69/125/12
f 67/126/7 54/127/7 56/121/7 65/94/7
f 37/71/7 59/102/7 57/82/7 40/72/7
f 51/106/12 59/83/12 58/86/12 50/107/12
f 52/110/11 60/80/11 57/82/11 49/104/11
f 50/112/9 58/74/9 60/77/9 52/113/9
f 45/96/9 61/111/9 63/114/9 47/97/9
f 47/92/11 63/109/11 64/101/11 48/93/11
f 46/88/12 62/105/12 61/108/12 45/89/12
f 51/103/7 62/99/7 64/101/7 49/104/7
f 46/100/7 67/126/7 65/94/7 48/93/7
f 53/116/9 66/95/9 68/98/9 55/117/9
f 55/120/11 68/91/11 65/94/11 56/121/11
f 54/123/12 67/87/12 66/90/12 53/124/12
f 38/128/12 70/122/12 69/125/12 43/129/12
f 44/130/11 71/119/11 72/69/11 39/68/11
f 43/78/9 69/115/9 71/118/9 44/79/9
f 54/127/7 70/66/7 72/69/7 56/121/7
o eyelid_lb
v -0.062500 0.131250 -0.246875
v -0.187500 0.131250 -0.246875
v -0.187500 0.187500 -0.246875
v -0.062500 0.187500 -0.246875
v -0.062500 0.131250 -0.184375
v -0.062500 0.187500 -0.184375
v -0.187500 0.131250 -0.184375
v -0.187500 0.187500 -0.184375
v -0.125000 0.131250 -0.184375
v -0.125000 0.131250 -0.246875
v -0.125000 0.187500 -0.184375
v -0.125000 0.187500 -0.246875
v -0.093750 0.187500 -0.246875
v -0.093750 0.131250 -0.184375
v -0.093750 0.131250 -0.246875
v -0.093750 0.187500 -0.184375
v -0.156250 0.131250 -0.184375
v -0.156250 0.131250 -0.246875
v -0.156250 0.187500 -0.184375
v -0.156250 0.187500 -0.246875
v -0.109375 0.131250 -0.184375
v -0.109375 0.131250 -0.246875
v -0.109375 0.187500 -0.184375
v -0.109375 0.187500 -0.246875
v -0.078125 0.187500 -0.246875
v -0.078125 0.131250 -0.184375
v -0.078125 0.131250 -0.246875
v -0.078125 0.187500 -0.184375
v -0.140625 0.187500 -0.246875
v -0.140625 0.131250 -0.184375
v -0.140625 0.131250 -0.246875
v -0.140625 0.187500 -0.184375
v -0.171875 0.131250 -0.184375
v -0.171875 0.131250 -0.246875
v -0.171875 0.187500 -0.184375
v -0.171875 0.187500 -0.246875
vt 0.546875 0.125000
vt 0.562500 0.125000
vt 0.562500 0.187500
vt 0.546875 0.187500
vt 0.375000 0.125000
vt 0.437500 0.125000
vt 0.437500 0.187500
vt 0.375000 0.187500
vt 0.734375 0.125000
vt 0.750000 0.125000
vt 0.750000 0.187500
vt 0.734375 0.187500
vt 0.625000 0.125000
vt 0.625000 0.187500
vt 0.453125 0.250000
vt 0.437500 0.250000
vt 0.453125 0.187500
vt 0.578125 0.187500
vt 0.562500 0.187500
vt 0.562500 0.250000
vt 0.578125 0.250000
vt 0.640625 0.187500
vt 0.625000 0.187500
vt 0.625000 0.250000
vt 0.640625 0.250000
vt 0.515625 0.250000
vt 0.500000 0.250000
vt 0.500000 0.187500
vt 0.515625 0.187500
vt 0.671875 0.125000
vt 0.687500 0.125000
vt 0.687500 0.187500
vt 0.671875 0.187500
vt 0.484375 0.125000
vt 0.500000 0.125000
vt 0.484375 0.187500
vt 0.453125 0.125000
vt 0.468750 0.125000
vt 0.468750 0.187500
vt 0.609375 0.187500
vt 0.593750 0.187500
vt 0.593750 0.250000
vt 0.609375 0.250000
vt 0.484375 0.250000
vt 0.468750 0.250000
vt 0.703125 0.125000
vt 0.718750 0.125000
vt 0.718750 0.187500
vt 0.703125 0.187500
vt 0.640625 0.125000
vt 0.656250 0.125000
vt 0.656250 0.187500
vt 0.640625 0.187500
vt 0.546875 0.250000
vt 0.531250 0.250000
vt 0.531250 0.187500
vt 0.671875 0.187500
vt 0.656250 0.187500
vt 0.656250 0.250000
vt 0.671875 0.250000
vt 0.515625 0.125000
vt 0.531250 0.125000
vt 0.687500 0.187500
vt 0.687500 0.250000
vt 0.562500 0.250000
vn 0.0000 0.0000 -1.0000
vn 1.0000 0.0000 0.0000
vn 0.0000 -0.0000 1.0000
vn -1.0000 0.0000 0.0000
vn 0.0000 1.0000 0.0000
vn 0.0000 -1.0000 -0.0000
s 1
f 106/131/13 74/132/13 75/133/13 108/134/13
f 77/135/14 73/136/14 76/137/14 78/138/14
f 98/139/15 77/140/15 78/141/15 100/142/15
f 74/132/16 79/143/16 80/144/16 75/133/16
f 100/145/17 78/146/17 76/137/17 97/147/17
f 99/148/18 73/149/18 77/150/18 98/151/18
f 103/152/18 82/153/18 81/154/18 102/155/18
f 104/156/17 83/157/17 84/158/17 101/159/17
f 102/160/15 81/161/15 83/162/15 104/163/15
f 94/164/13 82/165/13 84/158/13 96/166/13
f 99/167/13 87/168/13 85/169/13 97/147/13
f 94/170/18 87/171/18 86/172/18 93/173/18
f 95/174/17 88/175/17 85/169/17 96/166/17
f 93/176/15 86/177/15 88/178/15 95/179/15
f 105/180/15 89/181/15 91/182/15 107/183/15
f 107/184/17 91/185/17 92/186/17 108/134/17
f 106/187/18 90/188/18 89/189/18 105/190/18
f 103/191/13 90/192/13 92/186/13 101/159/13
f 81/161/15 93/176/15 95/179/15 83/162/15
f 83/157/17 95/174/17 96/166/17 84/158/17
f 82/153/18 94/170/18 93/173/18 81/154/18
f 87/168/13 94/164/13 96/166/13 85/169/13
f 73/136/13 99/167/13 97/147/13 76/137/13
f 87/171/18 99/148/18 98/151/18 86/172/18
f 88/175/17 100/145/17 97/147/17 85/169/17
f 86/177/15 98/139/15 100/142/15 88/178/15
f 82/165/13 103/191/13 101/159/13 84/158/13
f 89/181/15 102/160/15 104/163/15 91/182/15
f 91/185/17 104/156/17 101/159/17 92/186/17
f 90/188/18 103/152/18 102/155/18 89/189/18
f 74/193/18 106/187/18 105/190/18 79/194/18
f 80/195/17 107/184/17 108/134/17 75/133/17
f 79/143/15 105/180/15 107/183/15 80/144/15
f 90/192/13 106/131/13 108/134/13 92/186/13
o eyelid_lt
v -0.062500 0.312500 -0.246875
v -0.187500 0.312500 -0.246875
v -0.187500 0.368750 -0.246875
v -0.062500 0.368750 -0.246875
v -0.062500 0.312500 -0.184375
v -0.062500 0.368750 -0.184375
v -0.187500 0.312500 -0.184375
v -0.187500 0.368750 -0.184375
v -0.125000 0.312500 -0.184375
v -0.125000 0.312500 -0.246875
v -0.125000 0.368750 -0.184375
v -0.125000 0.368750 -0.246875
v -0.093750 0.368750 -0.246875
v -0.093750 0.312500 -0.184375
v -0.093750 0.312500 -0.246875
v -0.093750 0.368750 -0.184375
v -0.078125 0.368750 -0.246875
v -0.078125 0.312500 -0.184375
v -0.078125 0.312500 -0.246875
v -0.078125 0.368750 -0.184375
v -0.109375 0.312500 -0.184375
v -0.109375 0.312500 -0.246875
v -0.109375 0.368750 -0.184375
v -0.109375 0.368750 -0.246875
v -0.156250 0.312500 -0.184375
v -0.156250 0.312500 -0.246875
v -0.156250 0.368750 -0.184375
v -0.156250 0.368750 -0.246875
v -0.140625 0.368750 -0.246875
v -0.140625 0.312500 -0.184375
v -0.140625 0.312500 -0.246875
v -0.140625 0.368750 -0.184375
v -0.171875 0.312500 -0.184375
v -0.171875 0.312500 -0.246875
v -0.171875 0.368750 -0.184375
v -0.171875 0.368750 -0.246875
vt 0.546875 0.250000
vt 0.562500 0.250000
vt 0.562500 0.312500
vt 0.546875 0.312500
vt 0.375000 0.250000
vt 0.437500 0.250000
vt 0.437500 0.312500
vt 0.375000 0.312500
vt 0.734375 0.250000
vt 0.750000 0.250000
vt 0.750000 0.312500
vt 0.734375 0.312500
vt 0.625000 0.250000
vt 0.625000 0.312500
vt 0.453125 0.375000
vt 0.437500 0.375000
vt 0.453125 0.312500
vt 0.578125 0.312500
vt 0.562500 0.312500
vt 0.562500 0.375000
vt 0.578125 0.375000
vt 0.640625 0.312500
vt 0.625000 0.312500
vt 0.625000 0.375000
vt 0.640625 0.375000
vt 0.515625 0.375000
vt 0.500000 0.375000
vt 0.500000 0.312500
vt 0.515625 0.312500
vt 0.671875 0.250000
vt 0.687500 0.250000
vt 0.687500 0.312500
vt 0.671875 0.312500
vt 0.484375 0.250000
vt 0.500000 0.250000
vt 0.484375 0.312500
vt 0.453125 0.250000
vt 0.468750 0.250000
vt 0.468750 0.312500
vt 0.609375 0.312500
vt 0.593750 0.312500
vt 0.593750 0.375000
vt 0.609375 0.375000
vt 0.484375 0.375000
vt 0.468750 0.375000
vt 0.703125 0.250000
vt 0.718750 0.250000
vt 0.718750 0.312500
vt 0.703125 0.312500
vt 0.640625 0.250000
vt 0.656250 0.250000
vt 0.656250 0.312500
vt 0.640625 0.312500
vt 0.546875 0.375000
vt 0.531250 0.375000
vt 0.531250 0.312500
vt 0.671875 0.312500
vt 0.656250 0.312500
vt 0.656250 0.375000
vt 0.671875 0.375000
vt 0.515625 0.250000
vt 0.531250 0.250000
vt 0.687500 0.312500
vt 0.687500 0.375000
vt 0.562500 0.375000
vn 0.0000 0.0000 -1.0000
vn 1.0000 0.0000 0.0000
vn 0.0000 -0.0000 1.0000
vn -1.0000 0.0000 0.0000
vn 0.0000 1.0000 0.0000
vn 0.0000 -1.0000 0.0000
s 1
f 142/196/19 110/197/19 111/198/19 144/199/19
f 113/200/20 109/201/20 112/202/20 114/203/20
f 126/204/21 113/205/21 114/206/21 128/207/21
f 110/197/22 115/208/22 116/209/22 111/198/22
f 128/210/23 114/211/23 112/202/23 125/212/23
f 127/213/24 109/214/24 113/215/24 126/216/24
f 139/217/24 118/218/24 117/219/24 138/220/24
f 140/221/23 119/222/23 120/223/23 137/224/23
f 138/225/21 117/226/21 119/227/21 140/228/21
f 130/229/19 118/230/19 120/223/19 132/231/19
f 127/232/19 123/233/19 121/234/19 125/212/19
f 130/235/24 123/236/24 122/237/24 129/238/24
f 131/239/23 124/240/23 121/234/23 132/231/23
f 129/241/21 122/242/21 124/243/21 131/244/21
f 109/201/19 127/232/19 125/212/19 112/202/19
f 123/236/24 127/213/24 126/216/24 122/237/24
f 124/240/23 128/210/23 125/212/23 121/234/23
f 122/242/21 126/204/21 128/207/21 124/243/21
f 117/226/21 129/241/21 131/244/21 119/227/21
f 119/222/23 131/239/23 132/231/23 120/223/23
f 118/218/24 130/235/24 129/238/24 117/219/24
f 123/233/19 130/229/19 132/231/19 121/234/19
f 141/245/21 133/246/21 135/247/21 143/248/21
f 143/249/23 135/250/23 136/251/23 144/199/23
f 142/252/24 134/253/24 133/254/24 141/255/24
f 139/256/19 134/257/19 136/251/19 137/224/19
f 118/230/19 139/256/19 137/224/19 120/223/19
f 133/246/21 138/225/21 140/228/21 135/247/21
f 135/250/23 140/221/23 137/224/23 136/251/23
f 134/253/24 139/217/24 138/220/24 133/254/24
f 110/258/24 142/252/24 141/255/24 115/259/24
f 116/260/23 143/249/23 144/199/23 111/198/23
f 115/208/21 141/245/21 143/248/21 116/209/21
f 134/257/19 142/196/19 144/199/19 136/251/19
o eyelid_rt
v 0.187500 0.312500 -0.246875
v 0.062500 0.312500 -0.246875
v 0.062500 0.368750 -0.246875
v 0.187500 0.368750 -0.246875
v 0.187500 0.312500 -0.184375
v 0.187500 0.368750 -0.184375
v 0.062500 0.312500 -0.184375
v 0.062500 0.368750 -0.184375
v 0.125000 0.312500 -0.184375
v 0.125000 0.312500 -0.246875
v 0.125000 0.368750 -0.184375
v 0.125000 0.368750 -0.246875
v 0.156250 0.368750 -0.246875
v 0.156250 0.312500 -0.184375
v 0.156250 0.312500 -0.246875
v 0.156250 0.368750 -0.184375
v 0.171875 0.368750 -0.246875
v 0.171875 0.312500 -0.184375
v 0.171875 0.312500 -0.246875
v 0.171875 0.368750 -0.184375
v 0.140625 0.312500 -0.184375
v 0.140625 0.312500 -0.246875
v 0.140625 0.368750 -0.184375
v 0.140625 0.368750 -0.246875
v 0.093750 0.312500 -0.184375
v 0.093750 0.312500 -0.246875
v 0.093750 0.368750 -0.184375
v 0.093750 0.368750 -0.246875
v 0.109375 0.368750 -0.246875
v 0.109375 0.312500 -0.184375
v 0.109375 0.312500 -0.246875
v 0.109375 0.368750 -0.184375
v 0.078125 0.312500 -0.184375
v 0.078125 0.312500 -0.246875
v 0.078125 0.368750 -0.184375
v 0.078125 0.368750 -0.246875
vt 0.171875 0.250000
vt 0.187500 0.250000
vt 0.187500 0.312500
vt 0.171875 0.312500
vt 0.000000 0.250000
vt 0.062500 0.250000
vt 0.062500 0.312500
vt 0.000000 0.312500
vt 0.359375 0.250000
vt 0.375000 0.250000
vt 0.375000 0.312500
vt 0.359375 0.312500
vt 0.250000 0.250000
vt 0.250000 0.312500
vt 0.078125 0.375000
vt 0.062500 0.375000
vt 0.078125 0.312500
vt 0.203125 0.312500
vt 0.187500 0.312500
vt 0.187500 0.375000
vt 0.203125 0.375000
vt 0.265625 0.312500
vt 0.250000 0.312500
vt 0.250000 0.375000
vt 0.265625 0.375000
vt 0.140625 0.375000
vt 0.125000 0.375000
vt 0.125000 0.312500
vt 0.140625 0.312500
vt 0.296875 0.250000
vt 0.312500 0.250000
vt 0.312500 0.312500
vt 0.296875 0.312500
vt 0.109375 0.250000
vt 0.125000 0.250000
vt 0.109375 0.312500
vt 0.078125 0.250000
vt 0.093750 0.250000
vt 0.093750 0.312500
vt 0.234375 0.312500
vt 0.218750 0.312500
vt 0.218750 0.375000
vt 0.234375 0.375000
vt 0.109375 0.375000
vt 0.093750 0.375000
vt 0.328125 0.250000
vt 0.343750 0.250000
vt 0.343750 0.312500
vt 0.328125 0.312500
vt 0.265625 0.250000
vt 0.281250 0.250000
vt 0.281250 0.312500
vt 0.265625 0.312500
vt 0.171875 0.375000
vt 0.156250 0.375000
vt 0.156250 0.312500
vt 0.296875 0.312500
vt 0.281250 0.312500
vt 0.281250 0.375000
vt 0.296875 0.375000
vt 0.140625 0.250000
vt 0.156250 0.250000
vt 0.312500 0.312500
vt 0.312500 0.375000
vt 0.187500 0.375000
vn 0.0000 0.0000 -1.0000
vn 1.0000 0.0000 0.0000
vn 0.0000 -0.0000 1.0000
vn -1.0000 0.0000 0.0000
vn 0.0000 1.0000 0.0000
vn 0.0000 -1.0000 0.0000
s 1
f 178/261/25 146/262/25 147/263/25 180/264/25
f 149/265/26 145/266/26 148/267/26 150/268/26
f 162/269/27 149/270/27 150/271/27 164/272/27
f 146/262/28 151/273/28 152/274/28 147/263/28
f 164/275/29 150/276/29 148/267/29 161/277/29
f 163/278/30 145/279/30 149/280/30 162/281/30
f 175/282/30 154/283/30 153/284/30 174/285/30
f 176/286/29 155/287/29 156/288/29 173/289/29
f 174/290/27 153/291/27 155/292/27 176/293/27
f 166/294/25 154/295/25 156/288/25 168/296/25
f 163/297/25 159/298/25 157/299/25 161/277/25
f 166/300/30 159/301/30 158/302/30 165/303/30
f 167/304/29 160/305/29 157/299/29 168/296/29
f 165/306/27 158/307/27 160/308/27 167/309/27
f 145/266/25 163/297/25 161/277/25 148/267/25
f 159/301/30 163/278/30 162/281/30 158/302/30
f 160/305/29 164/275/29 161/277/29 157/299/29
f 158/307/27 162/269/27 164/272/27 160/308/27
f 153/291/27 165/306/27 167/309/27 155/292/27
f 155/287/29 167/304/29 168/296/29 156/288/29
f 154/283/30 166/300/30 165/303/30 153/284/30
f 159/298/25 166/294/25 168/296/25 157/299/25
f 177/310/27 169/311/27 171/312/27 179/313/27
f 179/314/29 171/315/29 172/316/29 180/264/29
f 178/317/30 170/318/30 169/319/30 177/320/30
f 175/321/25 170/322/25 172/316/25 173/289/25
f 154/295/25 175/321/25 173/289/25 156/288/25
f 169/311/27 174/290/27 176/293/27 171/312/27
f 171/315/29 176/286/29 173/289/29 172/316/29
f 170/318/30 175/282/30 174/285/30 169/319/30
f 146/323/30 178/317/30 177/320/30 151/324/30
f 152/325/29 179/314/29 180/264/29 147/263/29
f 151/273/27 177/310/27 179/313/27 152/274/27
f 170/322/25 178/261/25 180/264/25 172/316/25
o eyebrow_l
v -0.062500 0.310938 -0.253125
v -0.187500 0.310938 -0.253125
v -0.187500 0.373438 -0.253125
v -0.062500 0.373438 -0.253125
v -0.062500 0.310938 -0.190625
v -0.062500 0.373438 -0.190625
v -0.187500 0.310938 -0.190625
v -0.187500 0.373438 -0.190625
v -0.125000 0.310938 -0.190625
v -0.125000 0.310938 -0.253125
v -0.125000 0.373438 -0.190625
v -0.125000 0.373438 -0.253125
v -0.093750 0.373438 -0.253125
v -0.093750 0.310938 -0.190625
v -0.093750 0.310938 -0.253125
v -0.093750 0.373438 -0.190625
v -0.156250 0.310938 -0.190625
v -0.156250 0.310938 -0.253125
v -0.156250 0.373438 -0.190625
v -0.156250 0.373438 -0.253125
v -0.109375 0.310938 -0.190625
v -0.109375 0.310938 -0.253125
v -0.109375 0.373438 -0.190625
v -0.109375 0.373438 -0.253125
v -0.078125 0.373438 -0.253125
v -0.078125 0.310938 -0.190625
v -0.078125 0.310938 -0.253125
v -0.078125 0.373438 -0.190625
v -0.140625 0.373438 -0.253125
v -0.140625 0.310938 -0.190625
v -0.140625 0.310938 -0.253125
v -0.140625 0.373438 -0.190625
v -0.171875 0.310938 -0.190625
v -0.171875 0.310938 -0.253125
v -0.171875 0.373438 -0.190625
v -0.171875 0.373438 -0.253125
vt 0.546875 0.500000
vt 0.562500 0.500000
vt 0.562500 0.562500
vt 0.546875 0.562500
vt 0.375000 0.500000
vt 0.437500 0.500000
vt 0.437500 0.562500
vt 0.375000 0.562500
vt 0.734375 0.500000
vt 0.750000 0.500000
vt 0.750000 0.562500
vt 0.734375 0.562500
vt 0.625000 0.500000
vt 0.625000 0.562500
vt 0.453125 0.625000
vt 0.437500 0.625000
vt 0.453125 0.562500
vt 0.578125 0.562500
vt 0.562500 0.562500
vt 0.562500 0.625000
vt 0.578125 0.625000
vt 0.640625 0.562500
vt 0.625000 0.562500
vt 0.625000 0.625000
vt 0.640625 0.625000
vt 0.515625 0.625000
vt 0.500000 0.625000
vt 0.500000 0.562500
vt 0.515625 0.562500
vt 0.671875 0.500000
vt 0.687500 0.500000
vt 0.687500 0.562500
vt 0.671875 0.562500
vt 0.484375 0.500000
vt 0.500000 0.500000
vt 0.484375 0.562500
vt 0.453125 0.500000
vt 0.468750 0.500000
vt 0.468750 0.562500
vt 0.609375 0.562500
vt 0.593750 0.562500
vt 0.593750 0.625000
vt 0.609375 0.625000
vt 0.484375 0.625000
vt 0.468750 0.625000
vt 0.703125 0.500000
vt 0.718750 0.500000
vt 0.718750 0.562500
vt 0.703125 0.562500
vt 0.640625 0.500000
vt 0.656250 0.500000
vt 0.656250 0.562500
vt 0.640625 0.562500
vt 0.546875 0.625000
vt 0.531250 0.625000
vt 0.531250 0.562500
vt 0.671875 0.562500
vt 0.656250 0.562500
vt 0.656250 0.625000
vt 0.671875 0.625000
vt 0.515625 0.500000
vt 0.531250 0.500000
vt 0.687500 0.562500
vt 0.687500 0.625000
vt 0.562500 0.625000
vn 0.0000 0.0000 -1.0000
vn 1.0000 0.0000 0.0000
vn 0.0000 -0.0000 1.0000
vn -1.0000 0.0000 0.0000
vn 0.0000 1.0000 0.0000
vn 0.0000 -1.0000 0.0000
s 1
f 214/326/31 182/327/31 183/328/31 216/329/31
f 185/330/32 181/331/32 184/332/32 186/333/32
f 206/334/33 185/335/33 186/336/33 208/337/33
f 182/327/34 187/338/34 188/339/34 183/328/34
f 208/340/35 186/341/35 184/332/35 205/342/35
f 207/343/36 181/344/36 185/345/36 206/346/36
f 211/347/36 190/348/36 189/349/36 210/350/36
f 212/351/35 191/352/35 192/353/35 209/354/35
f 210/355/33 189/356/33 191/357/33 212/358/33
f 202/359/31 190/360/31 192/353/31 204/361/31
f 207/362/31 195/363/31 193/364/31 205/342/31
f 202/365/36 195/366/36 194/367/36 201/368/36
f 203/369/35 196/370/35 193/364/35 204/361/35
f 201/371/33 194/372/33 196/373/33 203/374/33
f 213/375/33 197/376/33 199/377/33 215/378/33
f 215/379/35 199/380/35 200/381/35 216/329/35
f 214/382/36 198/383/36 197/384/36 213/385/36
f 211/386/31 198/387/31 200/381/31 209/354/31
f 189/356/33 201/371/33 203/374/33 191/357/33
f 191/352/35 203/369/35 204/361/35 192/353/35
f 190/348/36 202/365/36 201/368/36 189/349/36
f 195/363/31 202/359/31 204/361/31 193/364/31
f 181/331/31 207/362/31 205/342/31 184/332/31
f 195/366/36 207/343/36 206/346/36 194/367/36
f 196/370/35 208/340/35 205/342/35 193/364/35
f 194/372/33 206/334/33 208/337/33 196/373/33
f 190/360/31 211/386/31 209/354/31 192/353/31
f 197/376/33 210/355/33 212/358/33 199/377/33
f 199/380/35 212/351/35 209/354/35 200/381/35
f 198/383/36 211/347/36 210/350/36 197/384/36
f 182/388/36 214/382/36 213/385/36 187/389/36
f 188/390/35 215/379/35 216/329/35 183/328/35
f 187/338/33 213/375/33 215/378/33 188/339/33
f 198/387/31 214/326/31 216/329/31 200/381/31
